<?xml version="1.0" encoding="iso-8859-1"?>
<!-- Generator: Adobe Illustrator 19.0.0, SVG Export Plug-In . SVG Version: 6.00 Build 0)  -->
<svg version="1.1" id="Layer_1" xmlns="http://www.w3.org/2000/svg" xmlns:xlink="http://www.w3.org/1999/xlink" x="0px" y="0px"
	 viewBox="0 0 491.52 491.52" style="enable-background:new 0 0 491.52 491.52;" xml:space="preserve">
<circle style="fill:#334D5C;" cx="245.76" cy="245.76" r="245.76"/>
<path style="opacity:0.1;enable-background:new    ;" d="M379.852,235.469c-0.256,0.154-0.563,0.307-0.819,0.41L275.251,132.096
	c-7.629-7.271-17.971-11.776-29.44-11.776c-23.603,0-42.701,19.149-42.701,42.701c0,4.301,0.615,8.448,1.792,12.339
	c-1.126,0.256-2.253,0.512-3.328,0.819l-19.814-19.762v-0.051c-9.523-9.779-19.763-13.773-19.763-13.773v17.92
	c-6.298-4.506-11.367-6.553-11.367-6.553v48.947c-11.622,10.803-20.326,23.859-24.882,38.298h-12.8
	c-4.404,0-7.987,3.584-7.987,7.987v31.949c0,1.536,0.41,2.97,1.177,4.148l0.051,0.051c0.614,1.075,1.485,1.946,2.56,2.56
	l60.57,60.57v17.51c0,1.485,0.614,2.816,1.638,3.738l0.153,0.154l117.768,117.804c87.533-15.501,159.053-77.277,188.333-159.197
	l-91.214-91.214C384.819,235.11,382.054,234.291,379.852,235.469z"/>
<g>
	<path style="fill:#31978C;" d="M365.977,285.292c-1.663,0-3.352-0.338-4.957-1.055c-4.112-1.833-7.265-5.724-8.879-10.957
		c-1.981-6.458-1.212-13.575,1.822-19.546c-3.542-2.313-7.384-4.309-11.147-6.263l-11.837-6.148c-3.06-1.585-3.9-1.375-3.984-1.34
		c-2.087,1.382-4.89,0.791-6.266-1.3c-1.371-2.089-0.787-4.899,1.304-6.272c5.045-3.314,10.904-0.27,13.119,0.875l11.837,6.148
		c4.165,2.164,8.419,4.373,12.447,7.057c4.13-3.781,9.038-5.887,13.782-7.926c2.352-1.008,4.576-1.963,6.646-3.091
		c2.206-1.2,4.948-0.385,6.142,1.808c1.198,2.198,0.385,4.946-1.808,6.142c-2.441,1.331-4.966,2.414-7.406,3.462
		c-3.723,1.601-7.265,3.122-10.108,5.33c6.266,5.985,9.966,13.221,10.453,20.488c0.106,1.607,0.128,4.024-0.964,6.418
		C374.422,282.995,370.31,285.292,365.977,285.292z M361.272,259.6c-1.331,3.52-1.561,7.473-0.473,11.021
		c0.818,2.653,2.242,4.603,3.909,5.346c1.225,0.546,2.905,0.122,3.219-0.584c0.128-0.276,0.256-0.853,0.172-2.069
		C367.701,267.369,364.128,262.549,361.272,259.6z"/>
	<path style="fill:#31978C;" d="M162.016,203.794v-61.21c0,0,40.493,15.705,35.549,61.21"/>
</g>
<g>
	<path style="fill:#3EA69B;" d="M197.802,371.186h-23.27c-2.865,0-5.188-2.323-5.188-5.188v-42.362h33.647v42.362
		C202.991,368.863,200.668,371.186,197.802,371.186z"/>
	<path style="fill:#3EA69B;" d="M288.732,371.186h-23.27c-2.865,0-5.188-2.323-5.188-5.188v-42.362h33.647v42.362
		C293.92,368.863,291.597,371.186,288.732,371.186z"/>
</g>
<path style="fill:#44C4A1;" d="M232.222,172.463c-51.028,0-93.941,29.169-106.498,68.76h-12.779c-4.411,0-7.986,3.575-7.986,7.985
	v31.939c0,4.41,3.575,7.985,7.986,7.985h12.779c12.558,39.591,55.47,68.76,106.498,68.76c60.881,0,110.235-41.51,110.235-92.715
	S293.103,172.463,232.222,172.463z"/>
<path style="fill:#3EA69B;" d="M150.618,215.193v-61.21c0,0,40.493,15.705,35.549,61.21"/>
<ellipse style="fill:#EBF0F3;" cx="156.355" cy="243.779" rx="9.149" ry="16.445"/>
<ellipse style="fill:#64798A;" cx="156.355" cy="243.779" rx="3.886" ry="6.989"/>
<ellipse style="fill:#FFFFFF;" cx="158.822" cy="239.36" rx="1.428" ry="2.57"/>
<rect x="202.143" y="201.882" style="fill:#31978C;" width="87.347" height="6.42"/>
<circle style="fill:#FCD462;" cx="245.811" cy="163.041" r="42.706"/>
<circle style="fill:#F6C358;" cx="245.811" cy="163.041" r="35.579"/>
<path style="fill:#DC8744;" d="M244.337,190.73v-4.877c-6.105-0.622-11.585-3.05-16.435-7.279l4.877-5.812
	c3.74,3.251,7.589,5.186,11.558,5.812v-12.961c-5.034-1.201-8.72-2.783-11.058-4.743c-2.338-1.96-3.507-4.866-3.507-8.717
	c0-3.852,1.343-7.002,4.039-9.454c2.697-2.449,6.203-3.784,10.525-4.007v-3.341h4.273v3.406c4.898,0.359,9.53,2.028,13.896,5.012
	l-4.344,6.146c-2.941-2.093-6.122-3.384-9.552-3.876v12.558h0.201c5.121,1.204,8.883,2.83,11.286,4.877
	c2.408,2.05,3.61,5.023,3.61,8.919c0,3.898-1.381,7.073-4.143,9.519c-2.762,2.452-6.41,3.787-10.955,4.009v4.809H244.337z
	 M239.624,147.61c-1.136,1-1.702,2.248-1.702,3.74c0,1.492,0.446,2.672,1.337,3.539c0.886,0.87,2.582,1.704,5.078,2.506v-11.558
	C242.331,146.017,240.76,146.607,239.624,147.61z M253.688,176.902c1.245-1.022,1.87-2.313,1.87-3.874
	c0-1.558-0.489-2.794-1.468-3.708c-0.984-0.913-2.811-1.77-5.48-2.571v12.023C250.747,178.552,252.438,177.927,253.688,176.902z"/>
<g>
</g>
<g>
</g>
<g>
</g>
<g>
</g>
<g>
</g>
<g>
</g>
<g>
</g>
<g>
</g>
<g>
</g>
<g>
</g>
<g>
</g>
<g>
</g>
<g>
</g>
<g>
</g>
<g>
</g>
</svg>
