<?xml version="1.0" standalone="no"?>
<!DOCTYPE svg PUBLIC "-//W3C//DTD SVG 20010904//EN"
 "http://www.w3.org/TR/2001/REC-SVG-20010904/DTD/svg10.dtd">
<svg version="1.0" xmlns="http://www.w3.org/2000/svg"
 width="894.000000pt" height="894.000000pt" viewBox="0 0 894.000000 894.000000"
 preserveAspectRatio="xMidYMid meet">
<metadata>
Created by potrace 1.16, written by Peter Selinger 2001-2019
</metadata>
<g transform="translate(0.000000,894.000000) scale(0.100000,-0.100000)"
fill="#000000" stroke="none">
<path d="M3290 7160 c0 -5 -20 -10 -44 -10 -25 0 -47 -4 -50 -9 -3 -5 -37 -12
-76 -16 -38 -4 -70 -11 -70 -16 0 -5 -11 -9 -24 -9 -26 0 -120 -26 -149 -41
-10 -6 -41 -13 -68 -16 -27 -3 -49 -9 -49 -12 0 -8 -46 -28 -85 -37 -16 -4
-34 -10 -40 -14 -5 -5 -27 -11 -47 -15 -21 -4 -35 -11 -32 -16 3 -5 -4 -9 -15
-9 -12 0 -21 -4 -21 -9 0 -5 -18 -11 -40 -15 -22 -3 -40 -10 -40 -16 0 -5 -16
-12 -35 -16 -20 -3 -34 -9 -31 -12 7 -6 -59 -42 -79 -42 -8 0 -15 -4 -15 -9 0
-5 -13 -12 -30 -16 -16 -4 -30 -11 -30 -16 0 -5 -9 -9 -20 -9 -11 0 -20 -4
-20 -9 0 -5 -12 -12 -27 -16 -15 -3 -34 -15 -43 -25 -9 -10 -28 -22 -42 -25
-15 -4 -29 -13 -32 -21 -3 -8 -15 -14 -26 -14 -11 0 -20 -4 -20 -9 0 -5 -8
-11 -17 -15 -25 -8 -57 -29 -66 -43 -4 -7 -15 -13 -24 -13 -8 0 -24 -11 -35
-25 -11 -14 -25 -25 -31 -25 -19 0 -73 -53 -81 -78 -4 -12 -11 -22 -16 -22 -8
0 -23 -38 -21 -52 1 -5 -4 -8 -9 -8 -6 0 -10 -9 -10 -20 0 -11 -7 -23 -15 -26
-8 -4 -15 -12 -15 -20 0 -8 -4 -14 -10 -14 -5 0 -10 -9 -10 -20 0 -11 -4 -20
-9 -20 -5 0 -12 -13 -16 -30 -4 -16 -11 -30 -16 -30 -5 0 -9 -4 -9 -10 0 -16
-34 -90 -42 -90 -3 0 -9 -13 -13 -30 -4 -16 -10 -30 -15 -30 -9 0 -23 -39 -21
-57 1 -7 -3 -13 -9 -13 -5 0 -10 -9 -10 -19 0 -11 -4 -22 -9 -26 -5 -3 -12
-19 -16 -35 -4 -17 -11 -30 -16 -30 -5 0 -9 -11 -9 -25 0 -14 -5 -25 -11 -25
-6 0 -9 -7 -5 -15 3 -8 1 -15 -4 -15 -6 0 -10 -11 -10 -25 0 -14 -4 -25 -9
-25 -5 0 -12 -13 -16 -30 -4 -16 -11 -30 -16 -30 -5 0 -9 -11 -9 -25 0 -14 -5
-25 -11 -25 -6 0 -9 -7 -5 -15 3 -8 1 -15 -4 -15 -6 0 -10 -11 -10 -25 0 -14
-4 -25 -9 -25 -5 0 -12 -22 -16 -50 -4 -27 -11 -50 -16 -50 -5 0 -9 -9 -9 -19
0 -11 -4 -22 -9 -25 -5 -4 -12 -24 -16 -46 -4 -22 -11 -40 -15 -40 -5 0 -12
-20 -16 -45 -3 -25 -10 -45 -15 -45 -5 0 -9 -16 -9 -35 0 -19 -4 -35 -9 -35
-5 0 -12 -20 -15 -45 -4 -25 -11 -45 -17 -45 -5 0 -9 -15 -9 -34 0 -19 -5 -38
-11 -41 -6 -4 -8 -13 -5 -21 3 -7 1 -16 -4 -19 -6 -4 -10 -19 -10 -36 0 -16
-4 -29 -9 -29 -5 0 -13 -25 -16 -55 -4 -30 -11 -55 -16 -55 -5 0 -9 -16 -9
-35 0 -19 -4 -35 -9 -35 -5 0 -13 -29 -16 -65 -4 -36 -11 -65 -15 -65 -4 0
-11 -31 -14 -70 -4 -38 -11 -70 -17 -70 -5 0 -9 -18 -9 -40 0 -22 -4 -40 -9
-40 -5 0 -12 -34 -16 -75 -4 -41 -11 -75 -15 -75 -5 0 -11 -38 -15 -85 -4 -47
-11 -85 -16 -85 -5 0 -9 -22 -9 -50 0 -27 -4 -50 -9 -50 -5 0 -12 -47 -16
-105 -4 -58 -11 -105 -15 -105 -8 0 -18 -84 -23 -192 -1 -27 -5 -48 -9 -48 -5
0 -8 -29 -8 -65 0 -36 -4 -73 -9 -83 -10 -18 -31 -359 -31 -494 0 -74 1 -78
35 -112 19 -20 35 -41 35 -47 0 -13 69 -79 82 -79 5 0 35 -26 66 -58 32 -31
73 -67 92 -79 19 -13 31 -23 26 -23 -12 0 40 -40 52 -40 6 0 19 -11 30 -25 11
-14 27 -25 36 -25 8 0 20 -9 26 -20 6 -11 17 -20 25 -20 8 0 20 -8 27 -19 7
-10 28 -22 46 -25 17 -4 32 -11 32 -15 0 -3 17 -15 38 -26 20 -11 43 -25 49
-32 7 -6 26 -17 43 -25 16 -7 30 -16 30 -20 0 -5 9 -8 19 -8 11 0 26 -7 35
-15 8 -8 20 -15 26 -15 13 0 72 -31 80 -42 3 -3 18 -10 33 -13 15 -4 27 -11
27 -16 0 -5 12 -9 26 -9 23 0 81 -25 94 -41 3 -4 24 -10 47 -14 24 -4 45 -11
48 -15 3 -5 26 -12 50 -16 25 -3 45 -10 45 -15 0 -5 11 -9 25 -9 14 0 25 -4
25 -9 0 -5 24 -12 53 -16 28 -4 54 -10 57 -14 7 -9 141 -41 173 -41 15 0 27
-4 27 -9 0 -5 38 -12 85 -16 47 -4 85 -11 85 -16 0 -5 25 -9 55 -9 30 0 55 -4
55 -10 0 -6 52 -10 136 -10 104 0 139 3 150 14 8 8 14 19 14 24 0 4 11 19 25
32 14 13 25 29 25 35 0 7 11 20 24 31 14 10 27 28 31 41 3 12 14 27 25 33 11
6 20 17 20 25 0 7 12 23 26 34 14 11 23 24 20 29 -3 4 4 15 15 22 13 10 19 26
19 51 0 38 -12 49 -51 49 -10 0 -19 5 -19 10 0 6 -10 10 -22 10 -13 0 -36 7
-52 15 -15 8 -35 15 -42 15 -8 0 -14 4 -14 10 0 5 -18 13 -40 16 -22 4 -40 10
-40 15 0 5 -7 9 -15 9 -8 0 -15 4 -15 9 0 5 -16 12 -35 15 -19 4 -35 11 -35
16 0 4 -13 11 -30 15 -16 4 -30 11 -30 16 0 5 -7 9 -15 9 -8 0 -15 4 -15 9 0
5 -16 12 -35 15 -19 4 -35 10 -35 14 0 4 -17 16 -37 27 -21 11 -42 25 -46 32
-4 7 -17 13 -27 13 -11 0 -20 4 -20 9 0 5 -8 11 -17 15 -22 7 -56 28 -64 39
-7 10 -41 30 -76 46 -12 5 -25 16 -30 24 -4 7 -23 22 -41 32 -17 11 -32 23
-32 27 0 4 -6 8 -12 8 -7 0 -30 18 -51 40 -20 22 -43 40 -49 40 -7 0 -29 18
-49 40 -21 22 -42 40 -47 40 -13 0 -112 103 -105 109 3 4 8 0 10 -7 3 -7 25
-21 49 -32 24 -11 44 -25 44 -30 0 -6 7 -10 15 -10 8 0 15 -4 15 -10 0 -5 11
-12 25 -16 14 -3 25 -10 25 -15 0 -5 9 -9 20 -9 11 0 20 -4 20 -10 0 -5 7 -10
15 -10 9 0 18 -7 21 -15 4 -8 13 -15 21 -15 15 0 74 -29 83 -42 3 -3 18 -10
33 -13 15 -4 27 -11 27 -16 0 -5 7 -9 16 -9 15 0 74 -29 84 -41 3 -3 22 -9 43
-13 20 -4 37 -11 37 -16 0 -6 18 -13 40 -16 22 -4 40 -10 40 -15 0 -5 7 -9 15
-9 8 0 15 -4 15 -10 0 -5 13 -10 28 -10 16 0 37 -7 48 -15 10 -8 29 -15 42
-15 12 0 22 -4 22 -9 0 -5 20 -12 45 -15 25 -4 45 -11 45 -16 0 -5 25 -12 55
-15 30 -4 55 -11 55 -16 0 -5 11 -9 25 -9 14 0 25 -4 25 -9 0 -5 29 -12 65
-16 36 -3 65 -10 65 -15 0 -4 27 -10 60 -14 33 -4 62 -11 65 -16 4 -6 24 -10
46 -10 21 0 39 -4 39 -9 0 -5 43 -12 95 -16 52 -4 95 -10 95 -15 0 -4 54 -11
120 -15 66 -4 123 -11 126 -16 3 -5 48 -9 100 -9 56 0 94 -4 94 -10 0 -6 140
-10 400 -10 260 0 400 4 400 10 0 6 38 10 94 10 52 0 97 4 100 9 3 5 60 12
126 16 66 4 120 11 120 15 0 5 43 11 95 15 52 4 95 11 95 16 0 5 18 9 39 9 22
0 42 4 46 10 3 5 32 12 65 16 33 4 60 10 60 14 0 5 29 12 65 15 36 4 65 11 65
16 0 5 11 9 25 9 14 0 25 4 25 9 0 5 25 12 55 16 30 3 55 10 55 15 0 5 20 12
45 16 25 3 45 10 45 15 0 5 10 9 23 9 12 0 31 7 41 15 11 8 32 15 48 15 15 0
28 5 28 10 0 6 7 10 15 10 8 0 15 4 15 9 0 5 18 11 40 15 22 3 40 10 40 16 0
5 17 12 38 16 20 4 39 10 42 13 10 12 69 41 84 41 9 0 16 4 16 9 0 5 12 12 27
16 15 3 30 10 33 13 9 13 68 42 83 42 8 0 17 7 21 15 3 8 12 15 21 15 8 0 15
5 15 10 0 6 9 10 20 10 11 0 20 4 20 9 0 5 11 12 25 15 14 4 25 11 25 16 0 6
7 10 15 10 8 0 15 4 15 10 0 5 20 19 44 30 24 11 46 25 49 32 2 7 7 11 10 7 7
-6 -92 -109 -105 -109 -5 0 -26 -18 -47 -40 -20 -22 -42 -40 -49 -40 -6 0 -29
-18 -49 -40 -21 -22 -44 -40 -50 -40 -7 0 -13 -4 -13 -8 0 -4 -15 -16 -32 -27
-18 -10 -37 -25 -41 -32 -5 -8 -18 -19 -30 -24 -35 -16 -69 -36 -76 -46 -8
-11 -42 -32 -63 -39 -10 -4 -18 -10 -18 -15 0 -5 -9 -9 -20 -9 -10 0 -23 -6
-27 -13 -4 -7 -25 -21 -45 -32 -21 -11 -38 -23 -38 -27 0 -4 -16 -10 -35 -14
-19 -3 -35 -10 -35 -15 0 -5 -7 -9 -15 -9 -8 0 -15 -4 -15 -9 0 -5 -13 -12
-30 -16 -16 -4 -30 -11 -30 -15 0 -5 -16 -12 -35 -16 -19 -3 -35 -10 -35 -15
0 -5 -7 -9 -15 -9 -8 0 -15 -4 -15 -9 0 -5 -18 -11 -40 -15 -22 -3 -40 -11
-40 -16 0 -6 -6 -10 -14 -10 -7 0 -27 -7 -42 -15 -16 -8 -39 -15 -51 -15 -13
0 -23 -4 -23 -10 0 -5 -9 -10 -19 -10 -39 0 -51 -11 -51 -49 0 -25 6 -41 19
-51 11 -7 18 -18 15 -22 -3 -5 6 -18 20 -29 14 -11 26 -27 26 -34 0 -8 9 -19
20 -25 11 -6 22 -21 25 -33 4 -13 17 -31 31 -41 13 -11 24 -24 24 -31 0 -6 11
-22 25 -35 14 -13 25 -28 25 -32 0 -5 6 -16 14 -24 11 -11 46 -14 150 -14 84
0 136 4 136 10 0 6 25 10 55 10 30 0 55 4 55 9 0 5 38 12 85 16 47 4 85 11 85
16 0 5 12 9 28 9 31 0 165 32 172 41 3 4 29 10 58 14 28 4 52 11 52 16 0 5 11
9 25 9 14 0 25 4 25 9 0 5 20 12 45 15 24 4 47 11 50 16 3 4 24 11 48 15 23 4
44 10 47 14 13 16 71 41 94 41 14 0 26 4 26 9 0 5 12 12 27 16 15 3 30 10 33
13 8 11 67 42 80 42 6 0 18 7 26 15 9 8 24 15 35 15 10 0 19 3 19 8 0 4 14 13
30 20 17 8 36 19 43 25 6 7 29 21 50 32 20 11 37 23 37 26 0 4 15 11 32 15 18
3 39 15 46 25 7 11 19 19 27 19 8 0 19 9 25 20 6 11 18 20 26 20 9 0 25 11 36
25 11 14 24 25 30 25 12 0 64 40 52 40 -5 0 7 10 26 23 19 12 60 48 92 79 31
32 61 58 66 58 13 0 82 66 82 79 0 6 16 27 35 47 34 34 35 38 35 112 0 135
-21 476 -31 494 -5 10 -9 47 -9 83 0 36 -3 65 -7 65 -5 0 -9 21 -10 48 -5 108
-15 192 -23 192 -4 0 -11 47 -15 105 -4 58 -11 105 -16 105 -5 0 -9 23 -9 50
0 28 -4 50 -9 50 -5 0 -12 38 -16 85 -4 47 -10 85 -15 85 -4 0 -11 34 -15 75
-4 41 -11 75 -16 75 -5 0 -9 18 -9 40 0 22 -4 40 -9 40 -6 0 -13 32 -17 70 -3
39 -10 70 -14 70 -4 0 -11 29 -15 65 -3 36 -11 65 -16 65 -5 0 -9 16 -9 35 0
19 -4 35 -9 35 -5 0 -12 25 -16 55 -3 30 -11 55 -16 55 -5 0 -9 13 -9 29 0 17
-4 32 -10 36 -5 3 -7 12 -4 19 3 8 1 17 -5 21 -6 3 -11 22 -11 41 0 19 -4 34
-9 34 -6 0 -13 20 -17 45 -3 25 -10 45 -15 45 -5 0 -9 16 -9 35 0 19 -4 35 -9
35 -5 0 -12 20 -15 45 -4 25 -11 45 -16 45 -4 0 -11 18 -15 40 -4 22 -11 42
-16 46 -5 3 -9 14 -9 25 0 10 -4 19 -9 19 -5 0 -12 23 -16 50 -4 28 -11 50
-16 50 -5 0 -9 11 -9 25 0 14 -4 25 -10 25 -5 0 -7 7 -4 15 4 8 1 15 -5 15 -6
0 -11 11 -11 25 0 14 -4 25 -9 25 -5 0 -12 14 -16 30 -4 17 -11 30 -16 30 -5
0 -9 11 -9 25 0 14 -4 25 -10 25 -5 0 -7 7 -4 15 4 8 1 15 -5 15 -6 0 -11 11
-11 25 0 14 -4 25 -9 25 -5 0 -12 13 -16 30 -4 16 -11 32 -16 35 -5 4 -9 15
-9 26 0 10 -5 19 -10 19 -6 0 -10 6 -9 13 2 18 -12 57 -21 57 -5 0 -11 14 -15
30 -4 17 -10 30 -13 30 -8 0 -42 74 -42 90 0 6 -4 10 -9 10 -5 0 -12 14 -16
30 -4 17 -11 30 -16 30 -5 0 -9 9 -9 20 0 11 -4 20 -10 20 -5 0 -10 6 -10 14
0 8 -7 16 -15 20 -8 3 -15 15 -15 26 0 11 -4 20 -10 20 -5 0 -10 3 -9 8 2 14
-13 52 -21 52 -5 0 -12 10 -16 23 -7 24 -47 63 -79 78 -22 10 -57 31 -65 39
-15 15 -71 50 -80 50 -5 0 -15 9 -22 20 -7 11 -20 20 -29 20 -9 0 -19 6 -22
14 -3 8 -19 17 -36 21 -17 4 -31 11 -31 16 0 5 -7 9 -15 9 -8 0 -15 4 -15 10
0 5 -11 12 -25 16 -14 3 -25 10 -25 15 0 5 -9 9 -20 9 -11 0 -20 4 -20 9 0 5
-13 12 -30 16 -16 4 -30 11 -30 16 0 5 -7 9 -16 9 -16 0 -74 29 -84 42 -3 3
-18 10 -33 13 -15 4 -27 11 -27 15 0 5 -13 11 -30 15 -16 4 -32 11 -35 16 -4
5 -17 9 -31 9 -14 0 -23 4 -20 9 3 5 -10 12 -29 15 -19 4 -47 13 -62 21 -15 8
-36 15 -45 15 -9 0 -20 5 -23 10 -3 6 -15 10 -26 10 -10 0 -19 4 -19 9 0 5
-21 12 -47 16 -27 4 -50 10 -53 14 -7 8 -132 41 -159 41 -12 0 -21 4 -21 9 0
6 -31 13 -70 17 -38 3 -70 11 -70 15 0 5 -22 9 -50 9 -28 0 -50 5 -50 10 0 7
-38 10 -107 8 l-107 -3 -10 -32 c-5 -18 -12 -33 -17 -33 -4 0 -10 -13 -14 -30
-4 -16 -11 -30 -16 -30 -5 0 -9 -16 -9 -35 0 -34 1 -34 50 -41 28 -4 50 -10
50 -15 0 -5 16 -9 35 -9 19 0 35 -4 35 -9 0 -5 20 -12 45 -15 25 -4 45 -11 45
-16 0 -4 23 -11 50 -15 28 -4 50 -11 50 -16 0 -5 11 -9 25 -9 14 0 25 -4 25
-9 0 -5 20 -12 45 -15 24 -4 47 -11 50 -17 4 -5 14 -9 23 -9 9 0 30 -7 46 -15
15 -8 35 -15 42 -15 8 0 14 -4 14 -9 0 -5 16 -12 35 -15 19 -4 35 -11 35 -15
0 -5 12 -12 28 -15 38 -10 82 -30 82 -38 0 -3 14 -9 30 -13 17 -4 36 -15 43
-26 6 -10 15 -19 20 -19 18 0 97 -41 97 -50 0 -6 9 -10 20 -10 11 0 20 -4 20
-10 0 -5 7 -10 15 -10 9 0 18 -7 21 -15 4 -8 15 -15 25 -15 11 0 22 -7 25 -15
4 -8 15 -15 27 -15 11 0 17 -3 14 -6 -7 -8 36 -44 51 -44 6 0 19 -11 30 -25
11 -14 26 -25 34 -25 7 0 24 -13 38 -30 14 -16 28 -30 33 -30 4 0 20 -11 35
-25 15 -14 21 -25 14 -25 -6 0 -12 4 -12 10 0 5 -18 13 -40 16 -22 4 -40 10
-40 14 0 5 -13 11 -30 15 -16 4 -30 11 -30 16 0 5 -7 9 -15 9 -8 0 -15 4 -15
9 0 5 -16 12 -35 15 -19 4 -35 10 -35 14 0 9 -75 42 -95 42 -8 0 -15 4 -15 9
0 5 -18 12 -40 16 -22 4 -40 11 -40 16 0 5 -7 9 -15 9 -8 0 -15 4 -15 9 0 5
-16 12 -35 15 -19 4 -47 13 -62 21 -15 8 -36 15 -45 15 -9 0 -20 5 -23 10 -3
6 -15 10 -26 10 -10 0 -19 4 -19 9 0 5 -22 12 -50 16 -27 4 -50 10 -50 15 0 4
-20 11 -45 14 -24 4 -47 11 -50 17 -4 5 -15 9 -26 9 -10 0 -19 4 -19 9 0 5
-29 12 -65 16 -36 3 -67 10 -70 15 -3 4 -32 11 -65 15 -33 4 -60 11 -60 16 0
5 -18 9 -40 9 -22 0 -40 4 -40 9 0 5 -36 12 -80 16 -44 4 -80 11 -80 16 0 5
-22 9 -50 9 -27 0 -50 4 -50 9 0 5 -60 12 -132 16 -74 4 -139 12 -147 19 -10
8 -154 11 -511 11 -357 0 -501 -3 -511 -11 -8 -7 -73 -15 -146 -19 -73 -4
-133 -11 -133 -16 0 -5 -22 -9 -50 -9 -27 0 -50 -4 -50 -9 0 -5 -36 -12 -80
-16 -44 -4 -80 -11 -80 -16 0 -5 -18 -9 -40 -9 -22 0 -40 -4 -40 -9 0 -5 -27
-12 -60 -16 -33 -4 -62 -11 -65 -15 -3 -5 -34 -12 -70 -15 -36 -4 -65 -11 -65
-16 0 -5 -9 -9 -19 -9 -11 0 -22 -4 -26 -9 -3 -6 -26 -13 -50 -17 -25 -3 -45
-10 -45 -14 0 -5 -22 -11 -50 -15 -27 -4 -50 -11 -50 -16 0 -5 -9 -9 -19 -9
-11 0 -23 -4 -26 -10 -3 -5 -14 -10 -23 -10 -9 0 -30 -7 -45 -15 -15 -8 -43
-17 -62 -21 -19 -3 -35 -10 -35 -15 0 -5 -7 -9 -15 -9 -8 0 -15 -4 -15 -9 0
-5 -18 -12 -40 -16 -22 -4 -40 -11 -40 -16 0 -5 -7 -9 -15 -9 -20 0 -95 -33
-95 -42 0 -4 -16 -10 -35 -14 -19 -3 -35 -10 -35 -15 0 -5 -7 -9 -15 -9 -8 0
-15 -4 -15 -9 0 -5 -13 -12 -30 -16 -17 -4 -30 -10 -30 -15 0 -4 -18 -10 -40
-14 -22 -3 -40 -11 -40 -16 0 -6 -6 -10 -12 -10 -7 0 -1 11 14 25 15 14 29 25
32 25 3 0 19 14 36 30 17 17 37 30 44 30 8 0 16 7 20 15 3 8 17 20 31 25 14 5
25 14 25 19 0 5 10 13 23 17 12 4 29 15 37 24 8 9 25 20 38 24 12 4 22 11 22
16 0 4 12 11 26 14 15 4 24 10 20 13 -7 7 60 42 80 43 7 0 14 7 18 15 3 8 15
15 26 15 11 0 20 5 20 10 0 6 7 10 15 10 8 0 15 4 15 10 0 5 16 12 35 16 19 3
35 10 35 15 0 5 7 9 15 9 8 0 15 4 15 9 0 5 14 12 30 16 17 4 30 11 30 15 0 5
16 12 35 16 19 3 35 10 35 15 0 5 9 9 19 9 11 0 22 4 26 9 3 5 19 12 36 16 17
4 42 13 57 21 15 8 37 14 50 14 13 0 20 4 17 10 -3 6 5 10 19 10 14 0 27 4 31
9 3 6 26 13 50 17 25 3 45 10 45 14 0 4 25 11 55 15 30 3 55 11 55 16 0 5 16
9 35 9 19 0 35 4 35 9 0 5 23 11 50 15 49 7 50 7 50 41 0 19 -4 35 -9 35 -5 0
-12 14 -16 30 -4 17 -10 30 -14 30 -5 0 -12 15 -17 33 l-10 32 -102 3 c-65 2
-102 -1 -102 -8z m228 -2398 c2 -7 13 -12 24 -12 21 0 81 -29 86 -42 2 -5 11
-8 21 -8 9 0 28 -13 41 -30 14 -16 28 -29 32 -30 13 0 48 -34 48 -45 0 -6 11
-21 25 -33 14 -12 25 -29 25 -37 0 -8 4 -15 10 -15 5 0 12 -11 16 -25 3 -14
10 -25 14 -25 5 0 11 -13 15 -30 4 -16 11 -30 16 -30 5 0 9 -11 9 -25 0 -14 4
-25 9 -25 5 0 7 -8 4 -19 -3 -10 0 -22 6 -25 6 -4 11 -25 11 -47 0 -21 5 -39
10 -39 6 0 10 -37 10 -90 0 -53 -4 -90 -10 -90 -5 0 -10 -18 -10 -40 0 -22 -5
-40 -11 -40 -5 0 -9 -8 -8 -17 2 -18 -3 -34 -27 -90 -8 -17 -14 -36 -14 -42 0
-6 -4 -11 -9 -11 -5 0 -12 -11 -15 -25 -4 -14 -11 -25 -16 -25 -6 0 -10 -5
-10 -11 0 -16 -142 -159 -157 -159 -7 0 -13 -4 -13 -10 0 -5 -9 -10 -19 -10
-10 0 -21 -7 -25 -15 -3 -8 -16 -15 -30 -15 -13 0 -26 -5 -28 -11 -2 -6 -27
-14 -56 -17 -29 -2 -52 -8 -52 -13 0 -5 -29 -9 -65 -9 -36 0 -65 4 -65 9 0 5
-25 12 -55 16 -30 3 -55 11 -55 16 0 5 -5 9 -11 9 -19 0 -84 33 -92 47 -4 7
-14 13 -21 13 -17 0 -126 116 -126 135 0 8 -5 15 -10 15 -6 0 -18 18 -27 40
-10 22 -21 40 -25 40 -3 0 -9 14 -13 30 -4 17 -10 30 -15 30 -5 0 -12 25 -15
55 -4 30 -11 55 -16 55 -5 0 -9 23 -9 50 0 28 -4 50 -10 50 -5 0 -10 18 -10
40 0 22 5 40 10 40 6 0 10 23 10 50 0 28 4 50 9 50 5 0 12 25 16 55 3 30 10
55 15 55 5 0 12 16 16 35 3 19 10 35 15 35 5 0 9 7 9 15 0 8 5 15 11 15 6 0 9
6 6 13 -3 8 3 20 14 28 10 7 19 18 19 24 0 13 126 145 139 145 5 0 16 6 23 13
24 22 75 47 97 47 12 0 21 4 21 9 0 15 45 19 169 17 78 -2 116 -6 119 -14z
m2190 0 c2 -7 13 -12 24 -12 21 0 73 -26 96 -47 7 -7 18 -13 23 -13 13 0 139
-132 139 -145 0 -6 9 -17 19 -24 11 -8 17 -20 14 -28 -3 -7 0 -13 6 -13 6 0
11 -7 11 -15 0 -8 4 -15 9 -15 5 0 12 -16 15 -35 4 -19 11 -35 16 -35 5 0 12
-25 15 -55 4 -30 11 -55 16 -55 5 0 9 -22 9 -50 0 -27 5 -50 10 -50 6 0 10
-18 10 -40 0 -22 -4 -40 -10 -40 -5 0 -10 -22 -10 -50 0 -27 -4 -50 -9 -50 -5
0 -12 -25 -16 -55 -3 -30 -10 -55 -15 -55 -5 0 -11 -13 -15 -30 -4 -16 -10
-30 -13 -30 -4 0 -15 -18 -25 -40 -9 -22 -21 -40 -27 -40 -5 0 -10 -7 -10 -15
0 -19 -109 -135 -126 -135 -7 0 -17 -6 -21 -13 -8 -14 -73 -47 -92 -47 -6 0
-11 -4 -11 -9 0 -5 -25 -13 -55 -16 -30 -4 -55 -11 -55 -16 0 -5 -29 -9 -65
-9 -36 0 -65 4 -65 9 0 5 -23 11 -52 13 -29 3 -54 11 -56 17 -2 6 -15 11 -28
11 -14 0 -27 7 -30 15 -4 8 -15 15 -25 15 -10 0 -19 5 -19 10 0 6 -6 10 -13
10 -15 0 -157 143 -157 159 0 6 -4 11 -10 11 -5 0 -12 11 -16 25 -3 14 -10 25
-15 25 -5 0 -9 5 -9 11 0 6 -6 25 -14 42 -24 56 -29 72 -27 90 1 9 -3 17 -8
17 -6 0 -11 18 -11 40 0 22 -4 40 -10 40 -6 0 -10 37 -10 90 0 53 4 90 10 90
6 0 10 18 10 39 0 22 5 43 11 47 6 3 9 15 6 25 -3 11 -1 19 4 19 5 0 9 11 9
25 0 14 4 25 9 25 5 0 12 14 16 30 4 17 10 30 15 30 4 0 11 11 14 25 4 14 11
25 16 25 6 0 10 7 10 15 0 8 11 25 25 37 14 12 25 27 25 33 0 11 35 45 48 45
4 1 18 14 32 30 13 17 32 30 41 30 10 0 19 3 21 8 6 13 65 42 87 42 12 0 21 4
21 9 0 15 45 19 169 17 78 -2 116 -6 119 -14z"/>
</g>
</svg>
