<?xml version="1.0" encoding="iso-8859-1"?>
<!-- Generator: Adobe Illustrator 19.0.0, SVG Export Plug-In . SVG Version: 6.00 Build 0)  -->
<svg version="1.1" id="Layer_1" xmlns="http://www.w3.org/2000/svg" xmlns:xlink="http://www.w3.org/1999/xlink" x="0px" y="0px"
	 viewBox="0 0 491.52 491.52" style="enable-background:new 0 0 491.52 491.52;" xml:space="preserve">
<rect y="0.003" style="fill:#64798A;" width="491.52" height="121.953"/>
<path style="fill:#3A556A;" d="M388.093,40.036H103.427c-9.845,0-17.828,7.982-17.828,17.828s7.982,17.828,17.828,17.828h284.665
	c9.845,0,17.828-7.982,17.828-17.828S397.938,40.036,388.093,40.036z"/>
<path style="fill:#27A2DB;" d="M153.096,39.588v248.613c0,6.101,4.937,11.045,11.029,11.045H323.82
	c6.092,0,11.03-4.944,11.03-11.045V39.588H153.096z"/>
<path style="fill:#FCD462;" d="M312.652,82.277V45.98c0-1.997-1.617-3.615-3.61-3.615h-36.245c-1.994,0-3.61,1.618-3.61,3.615
	v36.297c0,1.996,1.616,3.615,3.61,3.615h36.245C311.036,85.892,312.652,84.272,312.652,82.277z"/>
<ellipse style="fill:#E56353;" cx="287.437" cy="257.795" rx="25.242" ry="25.277"/>
<ellipse style="fill:#FCD462;" cx="287.437" cy="224.853" rx="25.242" ry="25.277"/>
<g>
	<rect x="235.284" y="42.366" style="fill:#FFFFFF;" width="8.765" height="71.731"/>
	<rect x="177.551" y="42.366" style="fill:#FFFFFF;" width="8.765" height="26.598"/>
	<rect x="177.592" y="90.335" style="fill:#FFFFFF;" width="8.765" height="26.598"/>
	<rect x="177.582" y="138.309" style="fill:#FFFFFF;" width="8.765" height="26.598"/>
	<rect x="177.603" y="186.284" style="fill:#FFFFFF;" width="8.765" height="26.598"/>
	<rect x="210.862" y="42.355" style="fill:#FFFFFF;" width="8.765" height="107.827"/>
</g>
<path style="fill:#FCD462;" d="M238.906,188.125c-6.758-4.572-15.717-4.186-22.056,0.948l-56.979,46.15
	c-7.45,6.034-18.83,2.756-21.59-6.418c-0.808-2.689-1.304-5.355-1.601-7.795c-0.75-6.184,2.996-12.038,8.851-14.191l7.565-2.783
	V153.32l-47.763,8.039c-18.045,3.037-32.161,17.193-35.124,35.225L37.51,395.529l95.027,26.232
	c50.42-49.782,60.657-84.159,59.995-111.918c-0.377-15.818,4.734-31.269,13.979-44.119l37.049-51.494
	C249.645,205.772,247.541,193.966,238.906,188.125z"/>
<rect x="6.541" y="397.677" transform="matrix(-0.9609 -0.2767 0.2767 -0.9609 61.9097 875.4745)" style="fill:#64798A;" width="172.375" height="71.383"/>
<ellipse transform="matrix(-0.9609 -0.2767 0.2767 -0.9609 175.4674 926.259)" style="fill:#FFFFFF;" cx="153.091" cy="450.749" rx="12.995" ry="12.979"/>
<path style="opacity:0.5;fill:#3A556A;enable-background:new    ;" d="M405.92,57.864c0-9.846-7.982-17.828-17.828-17.828H103.427
	c-9.845,0-17.828,7.982-17.828,17.828"/>
<g>
</g>
<g>
</g>
<g>
</g>
<g>
</g>
<g>
</g>
<g>
</g>
<g>
</g>
<g>
</g>
<g>
</g>
<g>
</g>
<g>
</g>
<g>
</g>
<g>
</g>
<g>
</g>
<g>
</g>
</svg>
