<?xml version="1.0" encoding="iso-8859-1"?>
<!-- Generator: Adobe Illustrator 19.0.0, SVG Export Plug-In . SVG Version: 6.00 Build 0)  -->
<svg version="1.1" id="Layer_1" xmlns="http://www.w3.org/2000/svg" xmlns:xlink="http://www.w3.org/1999/xlink" x="0px" y="0px"
	 viewBox="0 0 491.52 491.52" style="enable-background:new 0 0 491.52 491.52;" xml:space="preserve">
<circle style="fill:#EA8953;" cx="245.76" cy="245.76" r="245.76"/>
<path style="opacity:0.1;enable-background:new    ;" d="M491.52,245.76c0-13.256-1.082-26.256-3.102-38.943L386.56,104.96h-281.6
	v69.888l40.653,40.653c-0.154,0.666-0.307,1.382-0.41,2.099l-17.408,105.677l-11.469-3.328l-11.366,39.27l132.045,132.08
	c2.912,0.102,5.819,0.221,8.755,0.221C381.49,491.52,491.52,381.49,491.52,245.76z"/>
<rect x="104.96" y="104.96" style="fill:#64798A;" width="281.6" height="69.868"/>
<path style="fill:#3A556A;" d="M327.305,127.896H164.215c-5.641,0-10.214,4.573-10.214,10.214c0,5.641,4.573,10.214,10.214,10.214
	h163.089c5.641,0,10.214-4.573,10.214-10.214C337.518,132.469,332.945,127.896,327.305,127.896z"/>
<path style="fill:#27A2DB;" d="M192.671,127.639v142.435c0,3.496,2.829,6.328,6.319,6.328h91.492c3.49,0,6.319-2.832,6.319-6.328
	V127.639H192.671z"/>
<path style="fill:#FCD462;" d="M284.084,152.096v-20.795c0-1.144-0.926-2.071-2.068-2.071H261.25c-1.143,0-2.069,0.927-2.069,2.071
	v20.795c0,1.143,0.926,2.071,2.069,2.071h20.765C283.158,154.167,284.084,153.24,284.084,152.096z"/>
<ellipse style="fill:#E56353;" cx="269.624" cy="252.672" rx="14.459" ry="14.479"/>
<ellipse style="fill:#FCD462;" cx="269.624" cy="233.779" rx="14.459" ry="14.479"/>
<g>
	<rect x="239.744" y="129.229" style="fill:#FFFFFF;" width="5.023" height="41.114"/>
	<rect x="206.689" y="129.229" style="fill:#FFFFFF;" width="5.023" height="15.237"/>
	<rect x="206.705" y="156.692" style="fill:#FFFFFF;" width="5.023" height="15.237"/>
	<rect x="206.72" y="184.172" style="fill:#FFFFFF;" width="5.023" height="15.237"/>
	<rect x="206.689" y="211.656" style="fill:#FFFFFF;" width="5.023" height="15.237"/>
	<rect x="225.782" y="129.234" style="fill:#FFFFFF;" width="5.023" height="61.747"/>
</g>
<path style="fill:#FCD462;" d="M241.833,212.738c-3.872-2.619-9.004-2.399-12.636,0.543l-32.644,26.44
	c-4.268,3.457-10.788,1.579-12.369-3.677c-0.463-1.54-0.747-3.068-0.917-4.466c-0.43-3.543,1.717-6.897,5.071-8.13l4.334-1.595
	v-29.056l-27.364,4.605c-10.338,1.74-18.425,9.85-20.123,20.181L126.45,331.564l54.443,15.029
	c28.887-28.521,34.751-48.216,34.372-64.12c-0.216-9.062,2.712-17.915,8.009-25.276l21.226-29.502
	C247.986,222.849,246.78,216.085,241.833,212.738z"/>
<rect x="108.698" y="332.799" transform="matrix(-0.9609 -0.2767 0.2767 -0.9609 212.2233 736.4466)" style="fill:#64798A;" width="98.755" height="40.899"/>
<ellipse transform="matrix(-0.9609 -0.2767 0.2767 -0.9609 277.2598 765.5923)" style="fill:#FFFFFF;" cx="192.65" cy="363.233" rx="7.445" ry="7.434"/>
<path style="opacity:0.5;fill:#3A556A;enable-background:new    ;" d="M337.518,138.11c0-5.641-4.573-10.214-10.214-10.214H164.215
	c-5.641,0-10.214,4.573-10.214,10.214"/>
<g>
</g>
<g>
</g>
<g>
</g>
<g>
</g>
<g>
</g>
<g>
</g>
<g>
</g>
<g>
</g>
<g>
</g>
<g>
</g>
<g>
</g>
<g>
</g>
<g>
</g>
<g>
</g>
<g>
</g>
</svg>
