<svg enable-background="new 0 0 140 140" height="512" viewBox="0 0 140 140" width="512" xmlns="http://www.w3.org/2000/svg"><circle cx="70" cy="70" fill="#dbd8dd" r="63.991"/><path d="m133.9909515 69.3967133-26.9558105-26.9599572c-4.4399414-4.8901367-10.8499756-7.9599609-17.9699707-7.9599609-7.6899414 0-14.5300293 3.5800781-18.9799805 9.1601562l-1.2000732-1.2001953h-.0098877c-4.420166-4.8901367-10.8200684-7.9599609-17.9400635-7.9599609-13.4000244 0-24.2600098 10.8701172-24.2600098 24.2700195 0 10.4399376 8.289917 21.4101524 17.6199951 30.4501915l42.5446777 42.5444336c5.8977051-1.6108398 11.6640625-4.0893555 17.1131592-7.5004883 19.5655518-12.2470703 30.2202149-33.3393554 30.0379639-54.8442382z" opacity=".1"/><path d="m113.3288956 58.7472229c0 23.8747635-43.3340988 50.5026016-43.3340988 50.5026016s-43.3236962-26.6278381-43.3236962-50.5026016c0-13.4021873 10.8673096-24.2694321 24.2592239-24.2694321 7.7400322 0 14.6281929 3.6256256 19.0644722 9.2672386 4.4466858-5.641613 11.3347855-9.2672386 19.0748749-9.2672386 13.391922 0 24.259224 10.8672448 24.259224 24.2694321z" fill="#de594e"/><path d="m106.3291092 58.7473602c-.6313477-2.2539062-1.3753662-4.2954102-2.4030762-6.1533203-1.0100098-1.8583984-2.2580566-3.5283203-3.7166748-4.9907227-1.4632568-1.4570312-3.1312256-2.7060547-4.9885254-3.7167969-1.8570557-1.0268555-3.8962402-1.7739258-6.1505127-2.4086914 2.2655029-.6274414 4.7423096-.4804688 7.0566406.230957 2.3157959.7211914 4.472168 2.0366211 6.2041016 3.7749023 1.7335205 1.7368164 3.0465088 3.8930664 3.7659912 6.2084961.7076416 2.3149416.8557129 4.7895509.2320557 7.0551759z" fill="#ededed"/></svg>