<?xml version="1.0" encoding="iso-8859-1"?>
<!-- Generator: Adobe Illustrator 19.0.0, SVG Export Plug-In . SVG Version: 6.00 Build 0)  -->
<svg version="1.1" id="Capa_1" xmlns="http://www.w3.org/2000/svg" xmlns:xlink="http://www.w3.org/1999/xlink" x="0px" y="0px"
	 viewBox="0 0 409.6 409.6" style="enable-background:new 0 0 409.6 409.6;" xml:space="preserve">
<path style="fill:#D15241;" d="M322.285,292.115c0,64.885-52.6,117.485-117.485,117.485S87.315,357,87.315,292.115
	c0-64.885,103.726-155.588,117.486-282.599C211.789-54.991,322.285,227.23,322.285,292.115z"/>
<path style="fill:#CE412D;" d="M225.497,63.988c28.749,61.537,64.907,166.769,64.907,200.9c0,54.86-44.472,99.333-99.332,99.333
	c-34.464,0-64.812-17.566-82.625-44.219c13.793,38.289,50.333,65.714,93.371,65.714c54.862,0,99.333-44.473,99.333-99.333
	C301.152,247.803,254.972,118.456,225.497,63.988z"/>
<path style="fill:#E56353;" d="M204.8,171.002c0,32.443-26.3,58.743-58.743,58.743s-58.743-26.3-58.743-58.743
	c0-32.442,51.863-77.794,58.743-141.299C149.552-2.551,204.8,138.56,204.8,171.002z"/>
<path style="fill:#D15241;" d="M156.406,56.939c14.375,30.768,32.453,83.385,32.453,100.449c0,27.431-22.235,49.668-49.665,49.668
	c-17.232,0-32.406-8.783-41.313-22.11c6.897,19.144,25.166,32.857,46.686,32.857c27.43,0,49.667-22.237,49.667-49.667
	C194.234,148.847,171.143,84.173,156.406,56.939z"/>
<g>
</g>
<g>
</g>
<g>
</g>
<g>
</g>
<g>
</g>
<g>
</g>
<g>
</g>
<g>
</g>
<g>
</g>
<g>
</g>
<g>
</g>
<g>
</g>
<g>
</g>
<g>
</g>
<g>
</g>
</svg>
