<svg enable-background="new 0 0 110 110" height="512" viewBox="0 0 110 110" width="512" xmlns="http://www.w3.org/2000/svg"><path d="m98.3288956 41.8834152c0 23.8747635-43.334095 50.5026016-43.334095 50.5026016s-43.3237-26.6278381-43.3237-50.5026016c0-13.4021893 10.8673077-24.2694321 24.2592239-24.2694321 7.7400322 0 14.6281929 3.6256275 19.064476 9.2672386 4.446682-5.6416111 11.3347816-9.2672386 19.0748711-9.2672386 13.391922.0000001 24.259224 10.8672429 24.259224 24.2694321z" fill="#de594e"/><path d="m91.3291092 41.8835526c-.6313477-2.2539062-1.3753662-4.2954102-2.4030762-6.1533203-1.0100098-1.8583984-2.2580566-3.5283203-3.7166748-4.9907227-1.4632568-1.4570312-3.1312256-2.7060547-4.9885254-3.7167969-1.8570557-1.0268555-3.8962402-1.7739258-6.1505127-2.4086914 2.2655029-.6274414 4.7423096-.4804688 7.0566406.230957 2.3157959.7211914 4.472168 2.0366211 6.2041016 3.7749023 1.7335205 1.7368164 3.0465088 3.8930664 3.7659912 6.2084961.7076416 2.3149415.8557129 4.7895509.2320557 7.0551759z" fill="#ededed"/></svg>